<svg width="200" height="200" viewBox="0 0 200 200" fill="none" xmlns="http://www.w3.org/2000/svg">
<g id="File_light">
<path id="Rectangle 4152" d="M45.8334 49.1667C45.8334 42.166 45.8334 38.6657 47.1958 35.9918C48.3942 33.6398 50.3065 31.7275 52.6585 30.5291C55.3324 29.1667 58.8327 29.1667 65.8334 29.1667H104.216C107.273 29.1667 108.802 29.1667 110.24 29.512C111.516 29.8183 112.735 30.3233 113.854 31.0087C115.115 31.7817 116.196 32.8626 118.358 35.0245L148.309 64.9755C150.471 67.1374 151.552 68.2183 152.325 69.4798C153.01 70.5982 153.515 71.8175 153.821 73.0929C154.167 74.5315 154.167 76.0602 154.167 79.1176V150.833C154.167 157.834 154.167 161.334 152.804 164.008C151.606 166.36 149.694 168.273 147.342 169.471C144.668 170.833 141.167 170.833 134.167 170.833H65.8334C58.8327 170.833 55.3324 170.833 52.6585 169.471C50.3065 168.273 48.3942 166.36 47.1958 164.008C45.8334 161.334 45.8334 157.834 45.8334 150.833V49.1667Z" stroke="#F2F2F2" stroke-width="8.33333"/>
<path id="Vector 317" d="M104.167 29.1667V59.1667C104.167 66.1673 104.167 69.6677 105.529 72.3416C106.728 74.6936 108.64 76.6058 110.992 77.8043C113.666 79.1667 117.166 79.1667 124.167 79.1667H154.167" stroke="#F2F2F2" stroke-width="8.33333"/>
</g>
</svg>
