<svg width="200" height="200" viewBox="0 0 200 200" fill="none" xmlns="http://www.w3.org/2000/svg">
<g id="Group_add_light">
<circle id="Ellipse 46" cx="66.6667" cy="66.6667" r="20.8333" stroke="#F2F2F2" stroke-width="8.33333" stroke-linecap="round"/>
<path id="Ellipse 49" d="M98.0663 70.8333C100.276 67.0053 103.917 64.2119 108.186 63.0679C112.456 61.9238 117.005 62.5228 120.833 64.7329C124.661 66.943 127.455 70.5834 128.599 74.853C129.743 79.1227 129.144 83.6719 126.934 87.5C124.724 91.3281 121.083 94.1214 116.814 95.2654C112.544 96.4095 107.995 95.8106 104.167 93.6004C100.339 91.3903 97.5454 87.75 96.4013 83.4803C95.2573 79.2107 95.8562 74.6614 98.0663 70.8333L98.0663 70.8333Z" stroke="#F2F2F2" stroke-width="8.33333"/>
<path id="Subtract" d="M111.712 145.891L107.597 146.548L111.712 145.891ZM104.167 150H29.167V158.333H104.167V150ZM25.7367 146.548C26.8185 139.764 29.42 130.123 35.5331 122.259C41.4946 114.589 50.9894 108.333 66.667 108.333V100C48.3426 100 36.4477 107.503 28.9537 117.144C21.6113 126.59 18.6912 137.812 17.5074 145.235L25.7367 146.548ZM66.667 108.333C82.3446 108.333 91.8393 114.589 97.8008 122.259C103.914 130.123 106.515 139.764 107.597 146.548L115.827 145.235C114.643 137.812 111.723 126.59 104.38 117.144C96.8863 107.503 84.9914 100 66.667 100V108.333ZM29.167 150C26.7357 150 25.4749 148.189 25.7367 146.548L17.5074 145.235C16.3195 152.684 22.3935 158.333 29.167 158.333V150ZM104.167 158.333C110.94 158.333 117.014 152.684 115.827 145.235L107.597 146.548C107.859 148.189 106.598 150 104.167 150V158.333Z" fill="#F2F2F2"/>
<path id="Subtract_2" d="M144.138 145.135L140.097 146.148L144.138 145.135ZM98.3363 116.506L96.1038 112.988L91.8108 115.713L95.3255 119.387L98.3363 116.506ZM111.712 145.891L115.826 145.235L111.712 145.891ZM88.3755 150C88.376 150 88.3762 150 88.3739 150C88.3723 150 88.3684 150 88.364 150V158.333C88.3635 158.333 88.3633 158.333 88.3656 158.333C88.3671 158.333 88.3711 158.333 88.3755 158.333V150ZM136.625 150H88.3755V158.333H136.625V150ZM140.097 146.148C140.545 147.938 139.23 150 136.625 150V158.333C143.882 158.333 150.127 151.898 148.18 144.123L140.097 146.148ZM112.501 116.667C121.065 116.667 127.08 120.855 131.487 126.724C135.981 132.711 138.621 140.255 140.097 146.148L148.18 144.123C146.587 137.763 143.608 128.989 138.15 121.721C132.605 114.336 124.335 108.333 112.501 108.333V116.667ZM100.569 120.025C103.818 117.963 107.718 116.667 112.501 116.667V108.333C106.1 108.333 100.656 110.099 96.1038 112.988L100.569 120.025ZM95.3255 119.387C103.22 127.639 106.373 138.872 107.597 146.548L115.826 145.235C114.498 136.904 110.965 123.68 101.347 113.626L95.3255 119.387ZM107.597 146.548C107.859 148.189 106.598 150 104.167 150V158.333C110.94 158.333 117.014 152.684 115.826 145.235L107.597 146.548ZM104.167 150H88.364V158.333H104.167V150Z" fill="#F2F2F2"/>
<rect id="Rectangle 4222" x="135.417" y="43.75" width="37.5" height="4.16667" rx="2.08333" stroke="#F2F2F2" stroke-width="4.16667" stroke-linecap="round"/>
<rect id="Rectangle 4223" x="156.25" y="27.0833" width="37.5" height="4.16667" rx="2.08333" transform="rotate(90 156.25 27.0833)" stroke="#F2F2F2" stroke-width="4.16667" stroke-linecap="round"/>
</g>
</svg>
